<svg xmlns="http://www.w3.org/2000/svg" xmlns:xlink="http://www.w3.org/1999/xlink" width="175.705" height="56.857" viewBox="0 0 175.705 56.857">
  <defs>
    <linearGradient id="linear-gradient" x1="0.067" y1="0.004" x2="0.957" y2="0.99" gradientUnits="objectBoundingBox">
      <stop offset="0" stop-color="#9cacff"/>
      <stop offset="0.46" stop-color="#8692fa"/>
      <stop offset="0.99" stop-color="#7179f6"/>
    </linearGradient>
    <linearGradient id="linear-gradient-2" x1="0.344" y1="1.07" x2="0.479" y2="0.548" gradientUnits="objectBoundingBox">
      <stop offset="0" stop-color="#9cacff"/>
      <stop offset="0"/>
      <stop offset="0.04" stop-color="#060610"/>
      <stop offset="0.18" stop-color="#1c1d4b"/>
      <stop offset="0.33" stop-color="#2f317d"/>
      <stop offset="0.47" stop-color="#3f41a7"/>
      <stop offset="0.61" stop-color="#4b4ec7"/>
      <stop offset="0.75" stop-color="#5357de"/>
      <stop offset="0.87" stop-color="#595dec"/>
      <stop offset="0.98" stop-color="#5b5ff1"/>
    </linearGradient>
    <linearGradient id="linear-gradient-3" x1="0.678" y1="0.032" x2="0.527" y2="0.458" xlink:href="#linear-gradient-2"/>
  </defs>
  <g id="Group_3476" data-name="Group 3476" transform="translate(1299.845 -119.331)">
    <g id="Group_3296" data-name="Group 3296" transform="translate(-1239.289 135.512)">
      <path id="Path_1129" data-name="Path 1129" d="M-1549.757,681a7.819,7.819,0,0,0,2.739-.467v-4.785h-3.55v-3.026h6.9v9.736a11.05,11.05,0,0,1-2.725,1.128,12.5,12.5,0,0,1-3.368.44,11.447,11.447,0,0,1-4.625-.853,9.413,9.413,0,0,1-3.214-2.242,8.794,8.794,0,0,1-1.872-3.176,11.318,11.318,0,0,1-.6-3.63,11.36,11.36,0,0,1,.6-3.644,8.952,8.952,0,0,1,1.858-3.163,9.265,9.265,0,0,1,3.2-2.242,11.451,11.451,0,0,1,4.625-.853,12.526,12.526,0,0,1,3.228.384,10.059,10.059,0,0,1,2.585,1.073l-1.594,2.832a6.957,6.957,0,0,0-1.844-.922,7.421,7.421,0,0,0-2.348-.344,6.918,6.918,0,0,0-3.871,1.017,6.53,6.53,0,0,0-2.32,2.544,7.263,7.263,0,0,0-.769,3.315,7.266,7.266,0,0,0,.769,3.315,6.539,6.539,0,0,0,2.32,2.544,6.915,6.915,0,0,0,3.871,1.017Z" transform="translate(1560.07 -664.22)" fill="#9cacff"/>
      <path id="Path_1130" data-name="Path 1130" d="M-1382.954,721.372a7.335,7.335,0,0,1-.853,1.939,6.153,6.153,0,0,1-1.454,1.609,6.842,6.842,0,0,1-2.083,1.086,8.7,8.7,0,0,1-2.739.4,8.342,8.342,0,0,1-3.326-.6,6.557,6.557,0,0,1-2.306-1.609,6.455,6.455,0,0,1-1.342-2.282,8.128,8.128,0,0,1-.433-2.626,8.123,8.123,0,0,1,.433-2.626,6.445,6.445,0,0,1,1.342-2.282,6.583,6.583,0,0,1,2.306-1.609,8.334,8.334,0,0,1,3.326-.6,7.635,7.635,0,0,1,3.159.6,6.411,6.411,0,0,1,2.222,1.609,6.708,6.708,0,0,1,1.314,2.282,8.128,8.128,0,0,1,.433,2.626,4.78,4.78,0,0,1-.028.509c-.019.175-.037.344-.056.509h-11.04a4.367,4.367,0,0,0,1.286,2.159,3.8,3.8,0,0,0,2.711.922,4.114,4.114,0,0,0,2.236-.564,3.846,3.846,0,0,0,1.369-1.443h3.522Zm-3.633-3.823a3.827,3.827,0,0,0-1.272-1.692,3.553,3.553,0,0,0-2.222-.673,3.985,3.985,0,0,0-2.417.687,4,4,0,0,0-1.356,1.678Z" transform="translate(1416.431 -706.575)" fill="#9cacff"/>
      <path id="Path_1131" data-name="Path 1131" d="M-1244.464,712.86a6.375,6.375,0,0,1,4.779,1.719,6.582,6.582,0,0,1,1.678,4.8v7.616h-3.354V718.91a2.894,2.894,0,0,0-.867-2.2,3.111,3.111,0,0,0-2.236-.825,3.109,3.109,0,0,0-2.236.825,2.9,2.9,0,0,0-.866,2.2v8.083h-3.354v-7.616a6.584,6.584,0,0,1,1.677-4.8,6.377,6.377,0,0,1,4.78-1.719Z" transform="translate(1286.938 -707.193)" fill="#9cacff"/>
      <path id="Path_1132" data-name="Path 1132" d="M-1104.018,719.331V727h-3.354v-.932a5.3,5.3,0,0,1-1.774.729,9.14,9.14,0,0,1-1.914.206,7.829,7.829,0,0,1-3.186-.6,6.577,6.577,0,0,1-2.264-1.595,6.628,6.628,0,0,1-1.342-2.256,7.78,7.78,0,0,1-.447-2.613,6.853,6.853,0,0,1,.657-3.066,6.731,6.731,0,0,1,1.7-2.214,7.351,7.351,0,0,1,2.39-1.334,8.4,8.4,0,0,1,2.711-.453,8.411,8.411,0,0,1,2.529.372,6.37,6.37,0,0,1,2.18,1.155,5.581,5.581,0,0,1,1.537,2.007,6.854,6.854,0,0,1,.573,2.929Zm-10.928.578a4.268,4.268,0,0,0,.266,1.471,3.865,3.865,0,0,0,.8,1.306,4.024,4.024,0,0,0,1.327.936,4.5,4.5,0,0,0,1.858.358,3.156,3.156,0,0,0,1.51-.344,3.3,3.3,0,0,0,1.077-.908,4.061,4.061,0,0,0,.657-1.292,4.987,4.987,0,0,0,.224-1.471,4.273,4.273,0,0,0-.28-1.76,3.578,3.578,0,0,0-.825-1.237,3.6,3.6,0,0,0-1.187-.756,3.832,3.832,0,0,0-1.4-.261,4.533,4.533,0,0,0-1.467.247,3.908,3.908,0,0,0-1.285.742,3.674,3.674,0,0,0-.923,1.237,4.032,4.032,0,0,0-.349,1.732Z" transform="translate(1169.769 -707.202)" fill="#9cacff"/>
      <path id="Path_1133" data-name="Path 1133" d="M-973.93,733.052v-20.9h7.534a6.323,6.323,0,0,1,3.725,1.045,6.689,6.689,0,0,1,2.238,2.619,7.668,7.668,0,0,1,.736,3.4,7.7,7.7,0,0,1-.793,3.4,6.72,6.72,0,0,1-2.336,2.62,6.867,6.867,0,0,1-3.909,1.045,8.316,8.316,0,0,1-1.983-.25,5.607,5.607,0,0,1-1.841-.809v7.831h-3.37Zm7.166-9.838a3.3,3.3,0,0,0,2.025-.6,3.846,3.846,0,0,0,1.217-1.477,4.626,4.626,0,0,0,.424-1.922,4.753,4.753,0,0,0-.354-1.923,3.752,3.752,0,0,0-1.1-1.477,2.822,2.822,0,0,0-1.841-.6h-4.135v4.821a2.857,2.857,0,0,0,.368,1.519,3.155,3.155,0,0,0,.92.975,3.574,3.574,0,0,0,1.217.53,5.606,5.606,0,0,0,1.261.154Z" transform="translate(1042.219 -706.566)" fill="#9cacff"/>
      <path id="Path_1134" data-name="Path 1134" d="M-824.731,684.641a7.23,7.23,0,0,1-2.585-.44,5.361,5.361,0,0,1-1.984-1.293,5.812,5.812,0,0,1-1.272-2.076,8.187,8.187,0,0,1-.447-2.819V664.92h3.354v5.5h2.935v3.026h-2.907V678.2a3.988,3.988,0,0,0,.727,2.406,2.515,2.515,0,0,0,2.18,1v3.026Z" transform="translate(915.958 -664.838)" fill="#9cacff"/>
      <path id="Path_1135" data-name="Path 1135" d="M-755.26,712.15h3.354v14.216h-3.354Z" transform="translate(849.025 -706.566)" fill="#9cacff"/>
      <path id="Path_1136" data-name="Path 1136" d="M-704.68,712.15h4.335l3.352,3.981,2.889-3.981h3.9l-4.8,6.6,5.808,7.619h-4.334l-3.728-4.891-3.525,4.891h-3.9l5.433-7.506Z" transform="translate(804.338 -706.566)" fill="#9cacff"/>
    </g>
    <g id="Group_3297" data-name="Group 3297" transform="translate(-1239.29 164.417)">
      <path id="Path_1137" data-name="Path 1137" d="M-1557.068,915.31v3.809h-.51v-1.727h-1.991v1.727h-.51V915.31h.51v1.672h1.991V915.31Z" transform="translate(1560.08 -914.962)" fill="#9cacff"/>
      <path id="Path_1138" data-name="Path 1138" d="M-1525.431,923.594h-2.457a.957.957,0,0,0,.311.691,1.007,1.007,0,0,0,.687.248.963.963,0,0,0,.552-.15.793.793,0,0,0,.311-.4h.55a1.29,1.29,0,0,1-.494.7,1.515,1.515,0,0,1-.919.27,1.6,1.6,0,0,1-.783-.191,1.365,1.365,0,0,1-.541-.544,1.643,1.643,0,0,1-.2-.817,1.664,1.664,0,0,1,.191-.814,1.318,1.318,0,0,1,.536-.538,1.624,1.624,0,0,1,.793-.189,1.555,1.555,0,0,1,.774.185,1.3,1.3,0,0,1,.518.511,1.481,1.481,0,0,1,.183.735,2.771,2.771,0,0,1-.017.3Zm-.64-.892a.833.833,0,0,0-.351-.311,1.117,1.117,0,0,0-.49-.106.966.966,0,0,0-.659.24.963.963,0,0,0-.311.666h1.941A.9.9,0,0,0-1526.07,922.7Z" transform="translate(1532.099 -920.749)" fill="#9cacff"/>
      <path id="Path_1139" data-name="Path 1139" d="M-1498.369,922.609a1.363,1.363,0,0,1,.524-.538,1.474,1.474,0,0,1,.743-.191,1.4,1.4,0,0,1,.7.169,1.142,1.142,0,0,1,.443.426v-.546h.516v2.994h-.516v-.557a1.2,1.2,0,0,1-.451.435,1.376,1.376,0,0,1-.7.172,1.433,1.433,0,0,1-.74-.2,1.388,1.388,0,0,1-.522-.552,1.685,1.685,0,0,1-.191-.809A1.651,1.651,0,0,1-1498.369,922.609Zm2.272.221a.98.98,0,0,0-.379-.386,1.052,1.052,0,0,0-.524-.134,1.059,1.059,0,0,0-.522.132.954.954,0,0,0-.375.382,1.185,1.185,0,0,0-.141.591,1.223,1.223,0,0,0,.141.6.986.986,0,0,0,.375.388,1.033,1.033,0,0,0,.522.134,1.045,1.045,0,0,0,.524-.134.978.978,0,0,0,.379-.388,1.209,1.209,0,0,0,.14-.593A1.2,1.2,0,0,0-1496.1,922.831Z" transform="translate(1505.727 -920.766)" fill="#9cacff"/>
      <path id="Path_1140" data-name="Path 1140" d="M-1463.87,913.29v4.044h-.51V913.29Z" transform="translate(1475.53 -913.177)" fill="#9cacff"/>
      <path id="Path_1141" data-name="Path 1141" d="M-1454.09,916.994v1.765a.412.412,0,0,0,.1.309.475.475,0,0,0,.331.09h.375v.421h-.46a.934.934,0,0,1-.64-.191.806.806,0,0,1-.213-.628v-1.765h-.4v-.41h.4v-.754h.51v.754h.8v.41h-.8Z" transform="translate(1467.242 -915.421)" fill="#9cacff"/>
      <path id="Path_1142" data-name="Path 1142" d="M-1432.838,914.421a1.048,1.048,0,0,1,.44.435,1.446,1.446,0,0,1,.16.7v1.765h-.5v-1.694a.952.952,0,0,0-.229-.686.835.835,0,0,0-.628-.238.858.858,0,0,0-.642.246.989.989,0,0,0-.238.715v1.656h-.51V913.28h.51v1.475a1,1,0,0,1,.418-.355,1.383,1.383,0,0,1,.6-.126,1.359,1.359,0,0,1,.628.144Z" transform="translate(1449.564 -913.168)" fill="#9cacff"/>
      <path id="Path_1143" data-name="Path 1143" d="M-1405.64,922.609a1.346,1.346,0,0,1,.53-.538,1.558,1.558,0,0,1,.777-.191,1.551,1.551,0,0,1,.934.268,1.259,1.259,0,0,1,.485.743h-.55a.773.773,0,0,0-.305-.432.959.959,0,0,0-.564-.158.918.918,0,0,0-.707.292,1.178,1.178,0,0,0-.269.828,1.2,1.2,0,0,0,.269.836.91.91,0,0,0,.707.295.98.98,0,0,0,.562-.153.787.787,0,0,0,.309-.437h.55a1.317,1.317,0,0,1-.494.735,1.5,1.5,0,0,1-.925.276,1.561,1.561,0,0,1-.777-.191,1.346,1.346,0,0,1-.53-.541,1.69,1.69,0,0,1-.191-.82,1.642,1.642,0,0,1,.191-.812Z" transform="translate(1423.801 -920.766)" fill="#9cacff"/>
      <path id="Path_1144" data-name="Path 1144" d="M-1376.429,922.609a1.362,1.362,0,0,1,.524-.538,1.474,1.474,0,0,1,.743-.191,1.4,1.4,0,0,1,.7.169,1.141,1.141,0,0,1,.443.426v-.546h.516v2.994h-.516v-.557a1.2,1.2,0,0,1-.451.435,1.376,1.376,0,0,1-.7.172,1.433,1.433,0,0,1-.74-.2,1.387,1.387,0,0,1-.522-.552,1.684,1.684,0,0,1-.191-.809A1.649,1.649,0,0,1-1376.429,922.609Zm2.272.221a.981.981,0,0,0-.379-.386,1.051,1.051,0,0,0-.524-.134,1.059,1.059,0,0,0-.522.132.955.955,0,0,0-.375.382,1.185,1.185,0,0,0-.141.591,1.223,1.223,0,0,0,.141.6.986.986,0,0,0,.375.388,1.034,1.034,0,0,0,.522.134,1.045,1.045,0,0,0,.524-.134.979.979,0,0,0,.379-.388,1.21,1.21,0,0,0,.14-.593A1.2,1.2,0,0,0-1374.157,922.831Z" transform="translate(1397.994 -920.766)" fill="#9cacff"/>
      <path id="Path_1145" data-name="Path 1145" d="M-1341.545,921.972a1.217,1.217,0,0,1,.608-.142v.514h-.135q-.858,0-.858.908v1.629h-.51v-2.994h.51v.486a.961.961,0,0,1,.385-.4Z" transform="translate(1367.796 -920.722)" fill="#9cacff"/>
      <path id="Path_1146" data-name="Path 1146" d="M-1323.141,923.594h-2.457a.957.957,0,0,0,.311.691,1.007,1.007,0,0,0,.687.248.963.963,0,0,0,.552-.15.794.794,0,0,0,.311-.4h.55a1.291,1.291,0,0,1-.494.7,1.516,1.516,0,0,1-.919.27,1.6,1.6,0,0,1-.783-.191,1.366,1.366,0,0,1-.541-.544,1.643,1.643,0,0,1-.2-.817,1.663,1.663,0,0,1,.191-.814,1.317,1.317,0,0,1,.536-.538,1.624,1.624,0,0,1,.793-.189,1.555,1.555,0,0,1,.774.185,1.3,1.3,0,0,1,.518.511,1.481,1.481,0,0,1,.183.735,2.771,2.771,0,0,1-.017.3Zm-.64-.892a.833.833,0,0,0-.351-.311,1.117,1.117,0,0,0-.49-.106.966.966,0,0,0-.659.24.963.963,0,0,0-.311.666h1.941A.9.9,0,0,0-1323.78,922.7Z" transform="translate(1353.377 -920.749)" fill="#9cacff"/>
      <path id="Path_1147" data-name="Path 1147" d="M-1280.475,918.544l-.51-.5a1.918,1.918,0,0,1-.612.429,1.84,1.84,0,0,1-.734.14,1.7,1.7,0,0,1-.715-.142,1.11,1.11,0,0,1-.482-.4,1.093,1.093,0,0,1-.171-.612,1.126,1.126,0,0,1,.233-.7,1.527,1.527,0,0,1,.687-.478,1.627,1.627,0,0,1-.259-.382.92.92,0,0,1-.079-.382.772.772,0,0,1,.127-.435.837.837,0,0,1,.361-.3,1.288,1.288,0,0,1,.544-.11,1.134,1.134,0,0,1,.528.115.777.777,0,0,1,.337.319.86.86,0,0,1,.1.457h-.51a.451.451,0,0,0-.129-.353.484.484,0,0,0-.347-.128.517.517,0,0,0-.361.123.406.406,0,0,0-.137.315.6.6,0,0,0,.092.317,2.285,2.285,0,0,0,.311.377l1.166,1.142.1-.153.382-.623h.55l-.46.776a4.061,4.061,0,0,1-.225.344l.881.857h-.668Zm-1.31-.475a1.481,1.481,0,0,0,.463-.355l-1.15-1.125q-.718.267-.718.847a.689.689,0,0,0,.238.536.9.9,0,0,0,.62.213,1.261,1.261,0,0,0,.546-.115Z" transform="translate(1315.9 -914.387)" fill="#9cacff"/>
      <path id="Path_1148" data-name="Path 1148" d="M-1232.9,918.431h-1.706l-.313.847h-.538l1.413-3.788h.59l1.407,3.788h-.538Zm-.146-.4-.707-1.924-.707,1.924h1.413Z" transform="translate(1273.28 -915.121)" fill="#9cacff"/>
      <path id="Path_1149" data-name="Path 1149" d="M-1200.39,915.31v3.809h-.51V915.31Z" transform="translate(1242.746 -914.962)" fill="#9cacff"/>
      <path id="Path_1150" data-name="Path 1150" d="M-1187.732,929.01v.421h-2.238v-.421Z" transform="translate(1233.09 -927.066)" fill="#9cacff"/>
      <path id="Path_1151" data-name="Path 1151" d="M-1163.979,915.02a1.362,1.362,0,0,1,.524-.538,1.484,1.484,0,0,1,.749-.191,1.426,1.426,0,0,1,.668.161,1.174,1.174,0,0,1,.471.423V913.29h.516v4.044h-.516v-.563a1.189,1.189,0,0,1-.449.44,1.357,1.357,0,0,1-.7.172,1.451,1.451,0,0,1-.743-.2,1.385,1.385,0,0,1-.524-.552,1.684,1.684,0,0,1-.191-.809A1.65,1.65,0,0,1-1163.979,915.02Zm2.272.221a.98.98,0,0,0-.379-.386,1.051,1.051,0,0,0-.524-.134,1.059,1.059,0,0,0-.522.132.955.955,0,0,0-.375.382,1.185,1.185,0,0,0-.141.591,1.223,1.223,0,0,0,.141.6.986.986,0,0,0,.375.388,1.033,1.033,0,0,0,.522.134,1.045,1.045,0,0,0,.524-.134.978.978,0,0,0,.379-.388,1.209,1.209,0,0,0,.14-.593A1.2,1.2,0,0,0-1161.707,915.242Z" transform="translate(1210.296 -913.177)" fill="#9cacff"/>
      <path id="Path_1152" data-name="Path 1152" d="M-1129.1,921.972a1.217,1.217,0,0,1,.608-.142v.514h-.135q-.858,0-.858.908v1.629h-.51v-2.994h.51v.486a.961.961,0,0,1,.385-.4Z" transform="translate(1180.098 -920.722)" fill="#9cacff"/>
      <path id="Path_1153" data-name="Path 1153" d="M-1112.659,912.9a.322.322,0,0,1-.1-.24.321.321,0,0,1,.1-.24.341.341,0,0,1,.247-.1.32.32,0,0,1,.239.1.327.327,0,0,1,.1.24.327.327,0,0,1-.1.24.326.326,0,0,1-.239.1A.349.349,0,0,1-1112.659,912.9Zm.494.585v2.994h-.51v-2.994Z" transform="translate(1164.875 -912.32)" fill="#9cacff"/>
      <path id="Path_1154" data-name="Path 1154" d="M-1101.8,924.835l.954-2.535h.544l-1.206,2.994h-.594l-1.206-2.994h.55l.959,2.535Z" transform="translate(1156.526 -921.137)" fill="#9cacff"/>
      <path id="Path_1155" data-name="Path 1155" d="M-1071.851,923.594h-2.457a.957.957,0,0,0,.311.691,1.007,1.007,0,0,0,.687.248.963.963,0,0,0,.552-.15.793.793,0,0,0,.311-.4h.55a1.291,1.291,0,0,1-.494.7,1.516,1.516,0,0,1-.919.27,1.6,1.6,0,0,1-.783-.191,1.365,1.365,0,0,1-.541-.544,1.643,1.643,0,0,1-.2-.817,1.664,1.664,0,0,1,.191-.814,1.318,1.318,0,0,1,.536-.538,1.624,1.624,0,0,1,.793-.189,1.555,1.555,0,0,1,.774.185,1.3,1.3,0,0,1,.518.511,1.481,1.481,0,0,1,.183.735,2.771,2.771,0,0,1-.017.3Zm-.64-.892a.833.833,0,0,0-.351-.311,1.117,1.117,0,0,0-.49-.106.966.966,0,0,0-.659.24.966.966,0,0,0-.311.666h1.941A.9.9,0,0,0-1072.49,922.7Z" transform="translate(1131.364 -920.749)" fill="#9cacff"/>
      <path id="Path_1156" data-name="Path 1156" d="M-1040.915,922.152a1.253,1.253,0,0,1,.347.953v1.765h-.5v-1.694a.952.952,0,0,0-.23-.686.835.835,0,0,0-.628-.238.858.858,0,0,0-.642.246.989.989,0,0,0-.238.715v1.656h-.51v-2.994h.51v.426a1.007,1.007,0,0,1,.412-.355,1.307,1.307,0,0,1,.576-.126,1.266,1.266,0,0,1,.909.331Z" transform="translate(1103.525 -920.713)" fill="#9cacff"/>
      <path id="Path_1157" data-name="Path 1157" d="M-998.157,916.087a1.2,1.2,0,0,0-.471-.516,1.375,1.375,0,0,0-.718-.183,1.485,1.485,0,0,0-.737.183,1.314,1.314,0,0,0-.516.524,1.616,1.616,0,0,0-.188.79,1.6,1.6,0,0,0,.188.786,1.308,1.308,0,0,0,.516.522,1.485,1.485,0,0,0,.737.183,1.353,1.353,0,0,0,.943-.333,1.366,1.366,0,0,0,.432-.9h-1.56v-.4h2.1v.382a1.861,1.861,0,0,1-.3.861,1.853,1.853,0,0,1-.679.617,1.938,1.938,0,0,1-.937.227,2.018,2.018,0,0,1-.993-.248,1.846,1.846,0,0,1-.709-.691,1.933,1.933,0,0,1-.261-1,1.951,1.951,0,0,1,.261-1,1.846,1.846,0,0,1,.709-.694,2.018,2.018,0,0,1,.993-.248,2.031,2.031,0,0,1,1.1.3,1.728,1.728,0,0,1,.7.847h-.612Z" transform="translate(1066.41 -914.635)" fill="#9cacff"/>
      <path id="Path_1158" data-name="Path 1158" d="M-960.881,923.594h-2.457a.956.956,0,0,0,.311.691,1.007,1.007,0,0,0,.687.248.963.963,0,0,0,.552-.15.794.794,0,0,0,.311-.4h.55a1.291,1.291,0,0,1-.494.7,1.516,1.516,0,0,1-.919.27,1.6,1.6,0,0,1-.783-.191,1.365,1.365,0,0,1-.541-.544,1.643,1.643,0,0,1-.2-.817,1.663,1.663,0,0,1,.191-.814,1.318,1.318,0,0,1,.536-.538,1.624,1.624,0,0,1,.793-.189,1.555,1.555,0,0,1,.774.185,1.3,1.3,0,0,1,.518.511,1.479,1.479,0,0,1,.183.735,2.755,2.755,0,0,1-.017.3Zm-.64-.892a.832.832,0,0,0-.351-.311,1.117,1.117,0,0,0-.49-.106.966.966,0,0,0-.659.24.963.963,0,0,0-.311.666h1.941A.9.9,0,0,0-961.521,922.7Z" transform="translate(1033.323 -920.749)" fill="#9cacff"/>
      <path id="Path_1159" data-name="Path 1159" d="M-929.955,922.152a1.253,1.253,0,0,1,.347.953v1.765h-.5v-1.694a.952.952,0,0,0-.23-.686.835.835,0,0,0-.628-.238.858.858,0,0,0-.642.246.989.989,0,0,0-.238.715v1.656h-.51v-2.994h.51v.426a1.007,1.007,0,0,1,.412-.355,1.311,1.311,0,0,1,.576-.126,1.266,1.266,0,0,1,.909.331Z" transform="translate(1005.493 -920.713)" fill="#9cacff"/>
      <path id="Path_1160" data-name="Path 1160" d="M-900.221,923.594h-2.457a.957.957,0,0,0,.311.691,1.007,1.007,0,0,0,.687.248.963.963,0,0,0,.552-.15.794.794,0,0,0,.311-.4h.55a1.291,1.291,0,0,1-.494.7,1.515,1.515,0,0,1-.919.27,1.6,1.6,0,0,1-.783-.191,1.365,1.365,0,0,1-.541-.544,1.642,1.642,0,0,1-.2-.817,1.663,1.663,0,0,1,.191-.814,1.318,1.318,0,0,1,.536-.538,1.624,1.624,0,0,1,.793-.189,1.555,1.555,0,0,1,.774.185,1.3,1.3,0,0,1,.518.511,1.48,1.48,0,0,1,.183.735,2.756,2.756,0,0,1-.018.3Zm-.64-.892a.832.832,0,0,0-.351-.311,1.117,1.117,0,0,0-.49-.106.966.966,0,0,0-.659.24.966.966,0,0,0-.311.666h1.941A.9.9,0,0,0-900.861,922.7Z" transform="translate(979.73 -920.749)" fill="#9cacff"/>
      <path id="Path_1161" data-name="Path 1161" d="M-873.27,916.994v1.765a.412.412,0,0,0,.1.309.475.475,0,0,0,.331.09h.375v.421h-.46a.934.934,0,0,1-.64-.191.806.806,0,0,1-.213-.628v-1.765h-.4v-.41h.4v-.754h.51v.754h.8v.41h-.8Z" transform="translate(954.091 -915.421)" fill="#9cacff"/>
      <path id="Path_1162" data-name="Path 1162" d="M-854.819,912.9a.321.321,0,0,1-.1-.24.321.321,0,0,1,.1-.24.341.341,0,0,1,.247-.1.321.321,0,0,1,.239.1.327.327,0,0,1,.1.24.327.327,0,0,1-.1.24.326.326,0,0,1-.239.1A.349.349,0,0,1-854.819,912.9Zm.494.585v2.994h-.51v-2.994Z" transform="translate(937.075 -912.32)" fill="#9cacff"/>
      <path id="Path_1163" data-name="Path 1163" d="M-843.78,922.609a1.347,1.347,0,0,1,.53-.538,1.558,1.558,0,0,1,.777-.191,1.551,1.551,0,0,1,.934.268,1.259,1.259,0,0,1,.485.743h-.55a.772.772,0,0,0-.305-.432.958.958,0,0,0-.564-.158.918.918,0,0,0-.707.292,1.178,1.178,0,0,0-.269.828,1.2,1.2,0,0,0,.269.836.911.911,0,0,0,.707.295.98.98,0,0,0,.562-.153.787.787,0,0,0,.309-.437h.55a1.316,1.316,0,0,1-.494.735,1.5,1.5,0,0,1-.925.276,1.561,1.561,0,0,1-.777-.191,1.345,1.345,0,0,1-.53-.541,1.689,1.689,0,0,1-.191-.82,1.641,1.641,0,0,1,.191-.812Z" transform="translate(927.401 -920.766)" fill="#9cacff"/>
      <path id="Path_1164" data-name="Path 1164" d="M-797.955,915.542a1.659,1.659,0,0,1,.718.664,1.993,1.993,0,0,1,.249,1.016,1.978,1.978,0,0,1-.249,1.014,1.628,1.628,0,0,1-.718.656,2.514,2.514,0,0,1-1.108.227h-1.217V915.31h1.217A2.466,2.466,0,0,1-797.955,915.542Zm.048,2.776a1.463,1.463,0,0,0,.4-1.1,1.5,1.5,0,0,0-.4-1.109,1.568,1.568,0,0,0-1.152-.4h-.707v2.994h.707a1.587,1.587,0,0,0,1.156-.39Z" transform="translate(888.801 -914.962)" fill="#9cacff"/>
      <path id="Path_1165" data-name="Path 1165" d="M-766.859,912.9a.321.321,0,0,1-.1-.24.321.321,0,0,1,.1-.24.341.341,0,0,1,.247-.1.321.321,0,0,1,.239.1.327.327,0,0,1,.1.24.327.327,0,0,1-.1.24.326.326,0,0,1-.239.1A.349.349,0,0,1-766.859,912.9Zm.494.585v2.994h-.51v-2.994Z" transform="translate(859.363 -912.32)" fill="#9cacff"/>
      <path id="Path_1166" data-name="Path 1166" d="M-755.839,922.609a1.363,1.363,0,0,1,.524-.538,1.474,1.474,0,0,1,.743-.191,1.4,1.4,0,0,1,.7.169,1.142,1.142,0,0,1,.443.426v-.546h.516v2.994h-.516v-.557a1.2,1.2,0,0,1-.451.435,1.376,1.376,0,0,1-.7.172,1.432,1.432,0,0,1-.74-.2,1.387,1.387,0,0,1-.522-.552,1.685,1.685,0,0,1-.191-.809A1.649,1.649,0,0,1-755.839,922.609Zm2.272.221a.98.98,0,0,0-.379-.386,1.052,1.052,0,0,0-.524-.134,1.059,1.059,0,0,0-.522.132.955.955,0,0,0-.375.382,1.185,1.185,0,0,0-.141.591,1.223,1.223,0,0,0,.141.6.986.986,0,0,0,.375.388,1.033,1.033,0,0,0,.522.134,1.045,1.045,0,0,0,.524-.134.979.979,0,0,0,.379-.388,1.209,1.209,0,0,0,.14-.593A1.2,1.2,0,0,0-753.567,922.831Z" transform="translate(849.706 -920.766)" fill="#9cacff"/>
      <path id="Path_1167" data-name="Path 1167" d="M-721.351,922.058a1.144,1.144,0,0,1,.446.426v-.546h.516V925a1.459,1.459,0,0,1-.179.729,1.265,1.265,0,0,1-.514.5,1.612,1.612,0,0,1-.777.181,1.741,1.741,0,0,1-1.01-.278,1.086,1.086,0,0,1-.477-.76h.5a.793.793,0,0,0,.347.44,1.165,1.165,0,0,0,.634.167.95.95,0,0,0,.686-.256.952.952,0,0,0,.267-.721v-.628a1.216,1.216,0,0,1-.449.437,1.347,1.347,0,0,1-.7.175,1.45,1.45,0,0,1-.743-.2,1.385,1.385,0,0,1-.524-.552,1.685,1.685,0,0,1-.191-.809,1.649,1.649,0,0,1,.191-.806,1.363,1.363,0,0,1,.524-.538,1.474,1.474,0,0,1,.743-.191,1.385,1.385,0,0,1,.7.169Zm.306.782a.98.98,0,0,0-.379-.386,1.051,1.051,0,0,0-.524-.134,1.059,1.059,0,0,0-.522.132.955.955,0,0,0-.375.382,1.185,1.185,0,0,0-.141.591,1.223,1.223,0,0,0,.141.6.986.986,0,0,0,.375.388,1.033,1.033,0,0,0,.522.134,1.045,1.045,0,0,0,.524-.134.979.979,0,0,0,.379-.388,1.209,1.209,0,0,0,.14-.593A1.2,1.2,0,0,0-721.045,922.839Z" transform="translate(820.975 -920.775)" fill="#9cacff"/>
      <path id="Path_1168" data-name="Path 1168" d="M-686.9,922.152a1.253,1.253,0,0,1,.347.953v1.765h-.5v-1.694a.952.952,0,0,0-.23-.686.835.835,0,0,0-.628-.238.858.858,0,0,0-.642.246.989.989,0,0,0-.238.715v1.656h-.51v-2.994h.51v.426a1.007,1.007,0,0,1,.412-.355,1.311,1.311,0,0,1,.576-.126,1.266,1.266,0,0,1,.909.331Z" transform="translate(790.751 -920.713)" fill="#9cacff"/>
      <path id="Path_1169" data-name="Path 1169" d="M-659.381,924.772a1.373,1.373,0,0,1-.55-.544,1.631,1.631,0,0,1-.2-.817,1.581,1.581,0,0,1,.205-.812,1.391,1.391,0,0,1,.558-.541,1.65,1.65,0,0,1,.791-.189,1.65,1.65,0,0,1,.791.189,1.4,1.4,0,0,1,.558.538,1.584,1.584,0,0,1,.205.814,1.553,1.553,0,0,1-.211.817,1.453,1.453,0,0,1-.57.544,1.659,1.659,0,0,1-.8.191A1.606,1.606,0,0,1-659.381,924.772Zm1.3-.372a.972.972,0,0,0,.39-.378,1.184,1.184,0,0,0,.149-.612,1.206,1.206,0,0,0-.146-.612.947.947,0,0,0-.381-.374,1.093,1.093,0,0,0-.51-.123,1.082,1.082,0,0,0-.513.123.915.915,0,0,0-.373.374,1.23,1.23,0,0,0-.141.612,1.279,1.279,0,0,0,.138.617.9.9,0,0,0,.367.374,1.061,1.061,0,0,0,.506.123,1.1,1.1,0,0,0,.516-.126Z" transform="translate(764.979 -920.757)" fill="#9cacff"/>
      <path id="Path_1170" data-name="Path 1170" d="M-628.517,924.864a1.081,1.081,0,0,1-.444-.327.862.862,0,0,1-.179-.484h.528a.5.5,0,0,0,.216.366.841.841,0,0,0,.508.142.754.754,0,0,0,.46-.126.382.382,0,0,0,.168-.317.315.315,0,0,0-.179-.292,2.55,2.55,0,0,0-.555-.189,4.219,4.219,0,0,1-.558-.177,1,1,0,0,1-.37-.268.689.689,0,0,1-.154-.467.69.69,0,0,1,.141-.421.946.946,0,0,1,.4-.3,1.469,1.469,0,0,1,.59-.112,1.28,1.28,0,0,1,.825.252.9.9,0,0,1,.337.689h-.51a.514.514,0,0,0-.193-.377.737.737,0,0,0-.474-.142.75.75,0,0,0-.437.114.354.354,0,0,0-.163.3.328.328,0,0,0,.1.244.688.688,0,0,0,.247.153,4.058,4.058,0,0,0,.412.128,4.446,4.446,0,0,1,.538.172.944.944,0,0,1,.357.254.668.668,0,0,1,.154.443.739.739,0,0,1-.141.443.923.923,0,0,1-.395.309,1.449,1.449,0,0,1-.586.112,1.63,1.63,0,0,1-.634-.118Z" transform="translate(737.6 -920.775)" fill="#9cacff"/>
      <path id="Path_1171" data-name="Path 1171" d="M-603.179,912.9a.321.321,0,0,1-.1-.24.321.321,0,0,1,.1-.24.341.341,0,0,1,.247-.1.321.321,0,0,1,.239.1.327.327,0,0,1,.1.24.327.327,0,0,1-.1.24.326.326,0,0,1-.239.1A.349.349,0,0,1-603.179,912.9Zm.494.585v2.994h-.51v-2.994Z" transform="translate(714.752 -912.32)" fill="#9cacff"/>
      <path id="Path_1172" data-name="Path 1172" d="M-591.537,924.864a1.081,1.081,0,0,1-.444-.327.862.862,0,0,1-.179-.484h.528a.5.5,0,0,0,.216.366.841.841,0,0,0,.508.142.755.755,0,0,0,.46-.126.382.382,0,0,0,.168-.317.315.315,0,0,0-.179-.292,2.55,2.55,0,0,0-.555-.189,4.213,4.213,0,0,1-.558-.177,1,1,0,0,1-.371-.268.689.689,0,0,1-.154-.467.69.69,0,0,1,.141-.421.945.945,0,0,1,.4-.3,1.469,1.469,0,0,1,.589-.112,1.281,1.281,0,0,1,.825.252.9.9,0,0,1,.337.689h-.51a.514.514,0,0,0-.193-.377.737.737,0,0,0-.474-.142.75.75,0,0,0-.437.114.354.354,0,0,0-.163.3.327.327,0,0,0,.1.244.688.688,0,0,0,.247.153,4.056,4.056,0,0,0,.412.128,4.447,4.447,0,0,1,.538.172.945.945,0,0,1,.357.254.669.669,0,0,1,.154.443.74.74,0,0,1-.141.443.93.93,0,0,1-.395.309,1.449,1.449,0,0,1-.586.112,1.63,1.63,0,0,1-.634-.118Z" transform="translate(704.928 -920.775)" fill="#9cacff"/>
    </g>
    <g id="Group_3298" data-name="Group 3298" transform="translate(-1299.845 119.331)">
      <path id="Path_1173" data-name="Path 1173" d="M-1240.484,175.633c-4.8-1.739-7.362-8.054-11.044-11.61a.145.145,0,0,0-.023-.023c-2.519-2.891-14.136-15.294-24.266-11.154,3.941-3,7.3-5.864,2.205-12.022-3.119-3.769-6.621-5.9-6.717-11.632-.069-4.1,3.449-8.949,7.565-9.641,11.159-1.873,12.9,8.627,17.351,15.814,0,0,.057.1.172.28.046.069.092.137.134.2s.107.161.168.252.134.195.206.3.146.2.221.313c.092.126.191.26.3.4,3.139,4.213,12.168,14.045,23.956,6.98l.268-.2c-3.471,4.3-10.734,6-5.8,12.545,2.321,3.082,6.093,4.369,7.3,8.341,2.182,7.176-5.176,13.322-12,10.849Z" transform="translate(1282.602 -119.331)" fill="url(#linear-gradient)"/>
      <path id="Path_1174" data-name="Path 1174" d="M-1030.808,238.488a8,8,0,0,1-1.128,1.831l-.268.2c-11.789,7.064-20.818-2.768-23.956-6.98.107.137.214.271.322.405,6.058,7.4,11.655-4.434,17.775-5.374,6.016-.922,9.6,4.511,7.255,9.919Z" transform="translate(1084.551 -215.753)" fill="#666cf3"/>
      <path id="Path_1175" data-name="Path 1175" d="M-1268.794,411.8c-2.064-1.984-4.48-3.1-7.836-2.08-5.317,1.624-9.193,7.982-14.021,8.88-7.026,1.307-10.876-5.363-8.483-11.529,1.056-2.713,3.67-4.6,6.07-6.422l0,0c10.13-4.139,21.747,8.265,24.266,11.154Z" transform="translate(1299.845 -367.135)" fill="#666cf3"/>
      <path id="Path_1176" data-name="Path 1176" d="M-1030.808,238.488a8,8,0,0,1-1.128,1.831l-.268.2c-11.789,7.064-20.818-2.768-23.956-6.98.107.137.214.271.322.405,6.058,7.4,11.655-4.434,17.775-5.374,6.016-.922,9.6,4.511,7.255,9.919Z" transform="translate(1084.551 -215.753)" fill="url(#linear-gradient-2)"/>
      <path id="Path_1177" data-name="Path 1177" d="M-1268.794,411.8c-2.064-1.984-4.48-3.1-7.836-2.08-5.317,1.624-9.193,7.982-14.021,8.88-7.026,1.307-10.876-5.363-8.483-11.529,1.056-2.713,3.67-4.6,6.07-6.422l0,0c10.13-4.139,21.747,8.265,24.266,11.154Z" transform="translate(1299.845 -367.135)" fill="url(#linear-gradient-3)"/>
    </g>
  </g>
</svg>
